<svg width="80" height="80" viewBox="0 0 80 80" fill="none" xmlns="http://www.w3.org/2000/svg">
<g clip-path="url(#clip0_558_306)">
<path d="M40 80C62.1668 80 80 62.1668 80 40C80 17.8332 62.1668 0 40 0C17.8332 0 0 17.8332 0 40C0 62.1668 17.8332 80 40 80Z" fill="#051212"/>
<path d="M77.5996 40C77.5996 19.1587 60.8413 2.40039 40 2.40039C19.1587 2.40039 2.40039 19.1587 2.40039 40C2.40039 60.8413 19.1587 77.5996 40 77.5996V80C17.8332 80 0 62.1668 0 40C0 17.8332 17.8332 0 40 0C62.1668 0 80 17.8332 80 40C80 62.1668 62.1668 80 40 80V77.5996C60.8413 77.5996 77.5996 60.8413 77.5996 40Z" fill="#21F1A6"/>
<path d="M21.887 48.5983C25.2616 48.5983 27.9973 44.6526 27.9973 39.7853C27.9973 34.9181 25.2616 30.9724 21.887 30.9724C18.5123 30.9724 15.7767 34.9181 15.7767 39.7853C15.7767 44.6526 18.5123 48.5983 21.887 48.5983Z" fill="#21F1A6" fill-opacity="0.5"/>
<path d="M43.4593 57.9147C50.4776 57.9147 56.1671 49.8729 56.1671 39.9528C56.1671 30.0328 50.4776 21.991 43.4593 21.991C36.441 21.991 30.7516 30.0328 30.7516 39.9528C30.7516 49.8729 36.441 57.9147 43.4593 57.9147Z" fill="#21F1A6" fill-opacity="0.5"/>
<path d="M30.7408 52.7851C35.6536 52.7851 39.6362 47.0409 39.6362 39.9552C39.6362 32.8694 35.6536 27.1252 30.7408 27.1252C25.828 27.1252 21.8454 32.8694 21.8454 39.9552C21.8454 47.0409 25.828 52.7851 30.7408 52.7851Z" fill="#21F1A6" fill-opacity="0.5"/>
<path d="M63.1574 39.9556C63.1574 34.4159 61.8596 29.4433 59.8066 25.8562L59.7084 25.6863C57.6181 22.1204 54.8901 20.1396 52.0741 20.0785L51.9399 20.0769C49.1215 20.0769 46.3824 22.0022 44.272 25.5178L44.172 25.6863C42.0621 29.2855 40.7225 34.328 40.7225 39.9556C40.7225 45.5832 42.0621 50.6256 44.172 54.2248L44.272 54.3936C46.3824 57.9089 49.1215 59.8342 51.9399 59.8342C54.8034 59.8342 57.585 57.8473 59.7084 54.2248L59.8066 54.0552C61.8597 50.468 63.1574 45.4952 63.1574 39.9556ZM64.2241 39.9556C64.2241 45.6518 62.8918 50.8172 60.7298 54.5945L60.6264 54.7735C58.4032 58.5661 55.3319 60.9111 51.9399 60.9111C48.6012 60.9111 45.5731 58.6385 43.3587 54.9502L43.254 54.7735C41.0309 50.9813 39.6558 45.7423 39.6558 39.9556C39.6558 34.1689 41.0309 28.9301 43.254 25.1379L43.3587 24.9612C45.5731 21.2726 48.6012 19 51.9399 19L52.0985 19.0018C55.4276 19.0737 58.4379 21.4045 60.6264 25.1379L60.7298 25.3167C62.8918 29.0939 64.2241 34.2593 64.2241 39.9556Z" fill="url(#paint0_linear_558_306)"/>
</g>
<defs>
<linearGradient id="paint0_linear_558_306" x1="64.2241" y1="39.4299" x2="42.2021" y2="39.4299" gradientUnits="userSpaceOnUse">
<stop stop-color="#21F1A6"/>
<stop offset="1" stop-color="#21F1A6" stop-opacity="0"/>
</linearGradient>
<clipPath id="clip0_558_306">
<rect width="80" height="80" rx="40" fill="white"/>
</clipPath>
</defs>
</svg>
