<svg width="471" height="471" viewBox="0 0 471 471" fill="none" xmlns="http://www.w3.org/2000/svg">
<g filter="url(#filter0_dd_3016_2102)">
<ellipse cx="235.5" cy="235.5" rx="175.5" ry="175.5" transform="rotate(-90 235.5 235.5)" fill="url(#paint0_linear_3016_2102)"/>
</g>
<path d="M376 236.5C376 314.096 313.096 377 235.5 377C157.904 377 95 314.096 95 236.5C95 158.904 157.904 96 235.5 96C313.096 96 376 158.904 376 236.5Z" fill="#111112"/>
<path d="M250.337 171.249L241.071 211.982H229.726L227.789 203.384L226.358 196.936L220.562 171.249C234.988 169.044 236.523 169.044 250.337 171.249Z" fill="#111112"/>
<path d="M250.337 171.249L241.071 211.982H229.726L227.789 203.384L226.358 196.936L220.562 171.249C234.988 169.044 236.523 169.044 250.337 171.249Z" fill="url(#paint1_linear_3016_2102)"/>
<path d="M221.542 211.981L206.814 172.72C200.128 173.698 193.565 175.343 187.231 177.63L203.624 203.384L209.073 211.981H221.542Z" fill="#111112"/>
<path d="M221.542 211.981L206.814 172.72C200.128 173.698 193.565 175.343 187.231 177.63L203.624 203.384L209.073 211.981H221.542Z" fill="url(#paint2_linear_3016_2102)"/>
<path d="M301.999 220.579L308.486 237.774H268.889L270.35 220.579H301.999Z" fill="#111112"/>
<path d="M301.999 220.579L308.486 237.774H268.889L270.35 220.579H301.999Z" fill="url(#paint3_linear_3016_2102)"/>
<path d="M318.389 263.567H266.655L268.121 246.372H311.878L318.389 263.567Z" fill="#111112"/>
<path d="M318.389 263.567H266.655L268.121 246.372H311.878L318.389 263.567Z" fill="url(#paint4_linear_3016_2102)"/>
<path d="M304.743 290.024H264.237L266.239 272.719H322.476L304.743 290.024Z" fill="#111112"/>
<path d="M304.743 290.024H264.237L266.239 272.719H322.476L304.743 290.024Z" fill="url(#paint5_linear_3016_2102)"/>
<path d="M206.763 290.024H166.257L148.524 272.719H204.761L206.763 290.024Z" fill="#111112"/>
<path d="M206.763 290.024H166.257L148.524 272.719H204.761L206.763 290.024Z" fill="url(#paint6_linear_3016_2102)"/>
<path d="M202.106 237.774L200.645 220.579H168.888L162.434 237.774H202.106Z" fill="#111112"/>
<path d="M202.106 237.774L200.645 220.579H168.888L162.434 237.774H202.106Z" fill="url(#paint7_linear_3016_2102)"/>
<path d="M204.34 263.567H152.586L159.063 246.372H202.874L204.34 263.567Z" fill="#111112"/>
<path d="M204.34 263.567H152.586L159.063 246.372H202.874L204.34 263.567Z" fill="url(#paint8_linear_3016_2102)"/>
<path d="M279.805 184.04L283.674 178.022C283.674 178.022 275.659 175.93 263.512 174.038L249.255 211.982H261.724L267.282 203.384L271.468 196.936L279.805 184.04Z" fill="#111112"/>
<path d="M279.805 184.04L283.674 178.022C283.674 178.022 275.659 175.93 263.512 174.038L249.255 211.982H261.724L267.282 203.384L271.468 196.936L279.805 184.04Z" fill="url(#paint9_linear_3016_2102)"/>
<path d="M288.232 187.034L270.722 211.981H297.954L288.232 187.034Z" fill="#111112"/>
<path d="M288.232 187.034L270.722 211.981H297.954L288.232 187.034Z" fill="url(#paint10_linear_3016_2102)"/>
<path d="M200.075 211.981L182.857 187.034L172.842 211.981H200.075Z" fill="#111112"/>
<path d="M200.075 211.981L182.857 187.034L172.842 211.981H200.075Z" fill="url(#paint11_linear_3016_2102)"/>
<defs>
<filter id="filter0_dd_3016_2102" x="0" y="0" width="471" height="471" filterUnits="userSpaceOnUse" color-interpolation-filters="sRGB">
<feFlood flood-opacity="0" result="BackgroundImageFix"/>
<feColorMatrix in="SourceAlpha" type="matrix" values="0 0 0 0 0 0 0 0 0 0 0 0 0 0 0 0 0 0 127 0" result="hardAlpha"/>
<feOffset/>
<feGaussianBlur stdDeviation="30"/>
<feComposite in2="hardAlpha" operator="out"/>
<feColorMatrix type="matrix" values="0 0 0 0 0.619608 0 0 0 0 0.988235 0 0 0 0 0.992157 0 0 0 0.15 0"/>
<feBlend mode="normal" in2="BackgroundImageFix" result="effect1_dropShadow_3016_2102"/>
<feColorMatrix in="SourceAlpha" type="matrix" values="0 0 0 0 0 0 0 0 0 0 0 0 0 0 0 0 0 0 127 0" result="hardAlpha"/>
<feOffset/>
<feGaussianBlur stdDeviation="10"/>
<feComposite in2="hardAlpha" operator="out"/>
<feColorMatrix type="matrix" values="0 0 0 0 0.619608 0 0 0 0 0.988235 0 0 0 0 0.992157 0 0 0 0.15 0"/>
<feBlend mode="normal" in2="effect1_dropShadow_3016_2102" result="effect2_dropShadow_3016_2102"/>
<feBlend mode="normal" in="SourceGraphic" in2="effect2_dropShadow_3016_2102" result="shape"/>
</filter>
<linearGradient id="paint0_linear_3016_2102" x1="236.538" y1="60" x2="236.538" y2="769.63" gradientUnits="userSpaceOnUse">
<stop stop-color="#9EFCFD"/>
<stop offset="1" stop-color="white"/>
</linearGradient>
<linearGradient id="paint1_linear_3016_2102" x1="278.988" y1="140.922" x2="230.956" y2="355.095" gradientUnits="userSpaceOnUse">
<stop offset="0.104104" stop-color="#9EFCFD"/>
<stop offset="1" stop-color="white"/>
</linearGradient>
<linearGradient id="paint2_linear_3016_2102" x1="278.988" y1="140.922" x2="230.956" y2="355.095" gradientUnits="userSpaceOnUse">
<stop offset="0.104104" stop-color="#9EFCFD"/>
<stop offset="1" stop-color="white"/>
</linearGradient>
<linearGradient id="paint3_linear_3016_2102" x1="278.988" y1="140.922" x2="230.956" y2="355.095" gradientUnits="userSpaceOnUse">
<stop offset="0.104104" stop-color="#9EFCFD"/>
<stop offset="1" stop-color="white"/>
</linearGradient>
<linearGradient id="paint4_linear_3016_2102" x1="278.988" y1="140.922" x2="230.956" y2="355.095" gradientUnits="userSpaceOnUse">
<stop offset="0.104104" stop-color="#9EFCFD"/>
<stop offset="1" stop-color="white"/>
</linearGradient>
<linearGradient id="paint5_linear_3016_2102" x1="278.988" y1="140.922" x2="230.956" y2="355.095" gradientUnits="userSpaceOnUse">
<stop offset="0.104104" stop-color="#9EFCFD"/>
<stop offset="1" stop-color="white"/>
</linearGradient>
<linearGradient id="paint6_linear_3016_2102" x1="278.988" y1="140.922" x2="230.956" y2="355.095" gradientUnits="userSpaceOnUse">
<stop offset="0.104104" stop-color="#9EFCFD"/>
<stop offset="1" stop-color="white"/>
</linearGradient>
<linearGradient id="paint7_linear_3016_2102" x1="278.988" y1="140.922" x2="230.956" y2="355.095" gradientUnits="userSpaceOnUse">
<stop offset="0.104104" stop-color="#9EFCFD"/>
<stop offset="1" stop-color="white"/>
</linearGradient>
<linearGradient id="paint8_linear_3016_2102" x1="278.988" y1="140.922" x2="230.956" y2="355.095" gradientUnits="userSpaceOnUse">
<stop offset="0.104104" stop-color="#9EFCFD"/>
<stop offset="1" stop-color="white"/>
</linearGradient>
<linearGradient id="paint9_linear_3016_2102" x1="278.988" y1="140.922" x2="230.956" y2="355.095" gradientUnits="userSpaceOnUse">
<stop offset="0.104104" stop-color="#9EFCFD"/>
<stop offset="1" stop-color="white"/>
</linearGradient>
<linearGradient id="paint10_linear_3016_2102" x1="278.988" y1="140.922" x2="230.956" y2="355.095" gradientUnits="userSpaceOnUse">
<stop offset="0.104104" stop-color="#9EFCFD"/>
<stop offset="1" stop-color="white"/>
</linearGradient>
<linearGradient id="paint11_linear_3016_2102" x1="278.988" y1="140.922" x2="230.956" y2="355.095" gradientUnits="userSpaceOnUse">
<stop offset="0.104104" stop-color="#9EFCFD"/>
<stop offset="1" stop-color="white"/>
</linearGradient>
</defs>
</svg>
