<svg width="361" height="361" viewBox="0 0 361 361" fill="none" xmlns="http://www.w3.org/2000/svg">
<path d="M2.49999 180.5C2.5 82.1933 82.1933 2.5 180.5 2.49999C278.807 2.49999 358.5 82.1933 358.5 180.5C358.5 278.807 278.807 358.5 180.5 358.5C82.1933 358.5 2.5 278.807 2.49999 180.5Z" fill="#111112" stroke="#2A2A2A" stroke-width="5"/>
<circle cx="181" cy="181" r="139.5" fill="url(#paint0_linear_3015_1840)" stroke="#111112"/>
<path d="M196.353 115.717L186.764 157.996H175.026L173.021 149.072L171.54 142.379L165.542 115.716C180.471 113.428 182.059 113.428 196.353 115.717Z" fill="#111112"/>
<path d="M166.557 157.995L151.317 117.243C144.398 118.258 137.607 119.966 131.053 122.34L148.016 149.071L153.654 157.995H166.557Z" fill="#111112"/>
<path d="M249.811 166.919L256.524 184.767H215.55L217.062 166.919H249.811Z" fill="#111112"/>
<path d="M266.771 211.539H213.238L214.755 193.691H260.034L266.771 211.539Z" fill="#111112"/>
<path d="M252.65 239H210.736L212.808 221.038H271L252.65 239Z" fill="#111112"/>
<path d="M151.264 239H109.35L91 221.038H149.192L151.264 239Z" fill="#111112"/>
<path d="M146.445 184.767L144.933 166.919H112.072L105.394 184.767H146.445Z" fill="#111112"/>
<path d="M148.757 211.539H95.2032L101.905 193.691H147.239L148.757 211.539Z" fill="#111112"/>
<path d="M226.846 128.993L230.849 122.746C230.849 122.746 222.555 120.575 209.986 118.612L195.233 157.995H208.136L213.887 149.072L218.219 142.379L226.846 128.993Z" fill="#111112"/>
<path d="M235.565 132.1L217.446 157.995H245.626L235.565 132.1Z" fill="#111112"/>
<path d="M144.343 157.995L126.526 132.1L116.164 157.995H144.343Z" fill="#111112"/>
<defs>
<linearGradient id="paint0_linear_3015_1840" x1="251" y1="-25.6667" x2="97.6666" y2="447.667" gradientUnits="userSpaceOnUse">
<stop offset="0.104104" stop-color="#9EFCFD"/>
<stop offset="1" stop-color="white"/>
</linearGradient>
</defs>
</svg>
